<?xml version="1.0" encoding="utf-8"?>
<!-- Generator: Adobe Illustrator 23.0.0, SVG Export Plug-In . SVG Version: 6.00 Build 0)  -->
<svg version="1.1" id="Layer_1" xmlns="http://www.w3.org/2000/svg" xmlns:xlink="http://www.w3.org/1999/xlink" x="0px" y="0px"
	 viewBox="0 0 251.5 38.7" style="enable-background:new 0 0 251.5 38.7;" xml:space="preserve">
<style type="text/css">
	.st0{fill:#ED1C24;}
</style>
<title>Asset 1</title>
<g>
	<g id="Layer_2-2">
		<path class="st0" d="M1.1,1.3l20,0.1c2.4,0,4.6,1.3,5.7,3.4c1.3,2,2,4.3,1.9,6.7c0.1,2.5-0.7,5-2.1,7c2.7,2,4,5,4.1,9
			c0,2.4-0.6,4.7-1.9,6.7c-1.2,2.1-3.3,3.4-5.7,3.4h-22c-0.5,0.1-1.1-0.3-1.1-0.8c0-0.1,0-0.2,0-0.3v-34c-0.1-0.5,0.2-1.1,0.8-1.2
			C0.9,1.2,1,1.2,1.1,1.3z M11.5,25.3c0.1,1,0.5,1.5,1.5,1.5h4c0.8,0,1.1-0.7,1.1-2.2c0-1.5-0.4-2.2-1.1-2.2h-4
			c-0.7-0.1-1.3,0.4-1.4,1.1c0,0.1,0,0.2,0,0.3C11.5,24.4,11.5,24.9,11.5,25.3L11.5,25.3z M11.5,13.4c0,0.4,0.1,0.7,0.3,1
			c0.2,0.3,0.5,0.5,0.8,0.6H14h1.3c0.8,0,1.1-0.5,1.1-1.5S16,12,15.3,12h-2.6C11.9,12,11.5,12.5,11.5,13.4z"/>
		<path class="st0" d="M42.1,1.3c0.5-0.1,1,0.3,1.1,0.8c0,0.1,0,0.3,0,0.4v22.4c0,0.8,0.3,1.2,1,1.2h8.9c0.5-0.1,1,0.3,1.1,0.8
			c0,0.1,0,0.2,0,0.3v9.3c0.1,0.5-0.3,1.1-0.8,1.2c-0.1,0-0.2,0-0.3,0H33.5c-0.5,0.1-1-0.2-1.1-0.8c0-0.1,0-0.3,0-0.4v-34
			c-0.1-0.5,0.3-1.1,0.8-1.2c0.1,0,0.2,0,0.3,0L42.1,1.3z"/>
		<path class="st0" d="M66.4,1.3c0.5-0.1,1.1,0.3,1.2,0.8c0,0.1,0,0.3,0,0.4v34c0.1,0.5-0.3,1.1-0.8,1.2c-0.1,0-0.2,0-0.3,0h-9.2
			c-0.5,0.1-1.1-0.3-1.2-0.8c0-0.1,0-0.2,0-0.3v-34c-0.1-0.5,0.3-1.1,0.8-1.1c0.1,0,0.2,0,0.3,0L66.4,1.3z"/>
		<path class="st0" d="M88,0c6.8,0,13.2,3.6,16.6,9.5c0.5,0.9,0.7,1.5,0.5,1.8c-0.3,0.3-0.6,0.5-1,0.7l-7.5,3.3
			c-1,0.5-1.7,0.6-1.9,0.3s-0.4-0.5-0.7-0.9c-2.6-3.4-7.4-4-10.7-1.4c-1.9,1.4-3,3.7-3,6.1c0,4.2,3.4,7.6,7.6,7.6c0,0,0,0,0.1,0
			c2.5,0.1,4.9-1.2,6.3-3.3c0.6-0.8,1-1.2,1.3-1.1c0.4,0.1,0.8,0.2,1.1,0.3l7.4,3.2c0.3,0.1,0.6,0.3,1.1,0.6s0.4,0.8-0.1,1.8
			c-3.4,6.3-9.9,10.2-17.1,10.2c-5.1,0.1-10.1-1.9-13.7-5.6c-3.7-3.6-5.7-8.5-5.6-13.7c-0.1-5.1,1.9-10.1,5.6-13.7
			C77.9,2,82.8,0,88,0z"/>
		<path class="st0" d="M116.4,1.3c0.5-0.1,1.1,0.2,1.2,0.8c0,0.1,0,0.3,0,0.4V8c0,0.8,0.1,1.1,0.3,1.1s0.4-0.3,0.6-0.9
			c0.6-1.3,1.5-3.2,2.7-5.8c0.3-0.7,1.1-1.2,1.9-1.2h9.2c0.6,0,0.8,0.4,0.4,1.2L125.5,18c-0.4,0.7-0.4,1.5,0,2.1l7.6,16.4
			c0.1,0.3,0,0.7-0.3,0.8c-0.2,0.2-0.6,0.3-0.9,0.3h-9.2c-0.4,0-0.8-0.4-1.1-1.2l-3.2-7c-0.2-0.4-0.4-0.5-0.5-0.4s-0.2,0.3-0.2,0.8
			v6.7c0.1,0.5-0.3,1.1-0.8,1.2c-0.1,0-0.2,0-0.4,0h-9.2c-0.5,0.1-1.1-0.3-1.1-0.8c0-0.1,0-0.2,0-0.3v-34c-0.1-0.5,0.3-1.1,0.8-1.1
			c0.1,0,0.2,0,0.3,0L116.4,1.3z"/>
		<path class="st0" d="M159.2,19.7c2.2,1.6,3.6,4.2,3.6,7c0,3.4-1.7,6.1-5.1,8.2c-3,1.8-6.4,2.7-9.8,2.7c-2.5,0-4.9-0.4-7.2-1.3
			c-2.3-0.8-4.4-2.3-5.9-4.3c-0.2-0.3-0.3-0.7-0.1-1c0.2-0.3,0.4-0.5,0.7-0.7l8.1-3.8c0.7-0.2,1.4-0.1,2,0.2
			c0.8,0.3,1.6,0.6,2.4,0.7c0.7,0,1.4-0.1,2.1-0.4c0.9-0.4,1.3-0.8,1.3-1.5c0-1.2-1.1-1.8-3.4-1.8c-1.4,0-2.7-0.1-4.1-0.4
			c-2.7-0.5-5.2-1.7-7.2-3.6c-2.2-1.8-3.5-4.4-3.6-7.2c0-3.4,1.7-6.2,5-8.4c2.9-1.9,6.4-2.9,9.9-2.8c2.8,0,5.5,0.6,8,1.7
			c2.6,1.1,4.7,3,6,5.5c0.1,0.2,0.2,0.5,0.2,0.7c0,0.5-0.4,0.8-1,1l-8.5,3.1c-0.6,0.2-1,0.3-1.3,0.1l-0.7-0.5
			c-0.8-0.5-1.7-0.7-2.6-0.7c-0.7,0-1.4,0.1-2.1,0.4c-0.9,0.4-1.3,0.9-1.3,1.5s0.4,1.1,1.3,1.5c0.7,0.3,1.4,0.4,2.1,0.4
			c2,0.1,4.1,0.4,6,1.1C155.8,17.6,157.6,18.5,159.2,19.7z"/>
		<path class="st0" d="M165,1.3l15.4-0.1c3.5-0.2,7,1.1,9.5,3.6c2.5,2.5,3.9,5.9,3.7,9.4c0.1,3.5-1.2,6.9-3.7,9.4
			c-2.6,2.4-6,3.7-9.5,3.6h-3.8c-0.7,0-1.1,0.3-1.1,1v8.3c0.1,0.5-0.3,1.1-0.8,1.2c-0.1,0-0.2,0-0.3,0h-9.2
			c-0.5,0.1-1.1-0.2-1.2-0.8c0-0.1,0-0.2,0-0.4v-34C163.9,1.6,164.2,1.3,165,1.3z M177,12.1h-0.3c-0.8,0-1.2,0.4-1.2,1.1v3
			c0,0.7,0.4,1.1,1,1.1h0.5c1.4,0,2.9-0.1,4.2-0.6c0.9-0.3,1.5-1.2,1.4-2.1c0.1-1-0.5-1.9-1.4-2.1C179.8,12.2,178.4,12,177,12.1z"/>
		<path class="st0" d="M210.9,0c4.9-0.1,9.5,2,12.9,5.7c3.5,3.6,5.4,8.5,5.3,13.7c0.1,5.1-1.8,10.1-5.3,13.7
			c-7.2,7.5-18.7,7.5-25.8,0c-3.5-3.6-5.4-8.5-5.3-13.7c-0.1-5.1,1.8-10.1,5.3-13.7C201.4,1.9,206-0.1,210.9,0z M210.9,11.7
			c-4,0-7.2,3.4-7.2,7.6c0,4.2,3.2,7.6,7.2,7.6c4,0,7.2-3.4,7.2-7.6C218.1,15.1,214.9,11.7,210.9,11.7L210.9,11.7z"/>
		<path class="st0" d="M229,1.3h21.3c0.8,0,1.2,0.4,1.2,1.1V11c0,0.7-0.4,1.1-1.2,1.1h-4.8c-0.6,0-0.9,0.4-0.9,1.1v23.2
			c0.1,0.5-0.2,1.1-0.7,1.2c-0.1,0-0.2,0-0.3,0h-7.9c-0.5,0.1-0.9-0.2-1-0.8c0-0.1,0-0.2,0-0.4V13.2c0-0.8-0.3-1.1-0.9-1.1H229
			c-0.8,0-1.2-0.4-1.2-1.1V2.4C227.8,1.7,228.2,1.3,229,1.3z"/>
	</g>
</g>
</svg>
